<svg width="24" height="24" viewBox="0 0 24 24" fill="none" xmlns="http://www.w3.org/2000/svg">
<g clip-path="url(#clip0)">
<path d="M11.992 1.96595C11.558 1.96595 11.122 2.05195 10.712 2.22295L1.779 5.91694C1.276 6.12494 1.289 6.82495 1.791 7.03295L10.773 10.5909C11.5599 10.9099 12.4401 10.9099 13.227 10.5909L22.209 7.03295C22.712 6.83695 22.712 6.12494 22.221 5.91694L13.264 2.22295C12.8615 2.05277 12.429 1.96537 11.992 1.96595V1.96595ZM23.4 8.05594C23.3238 8.05644 23.2484 8.07172 23.178 8.10094L13.166 11.9779C13.054 12.0238 12.9581 12.1019 12.8904 12.2023C12.8228 12.3027 12.7865 12.4209 12.786 12.5419V21.4379C12.7869 21.5353 12.8116 21.631 12.8578 21.7168C12.904 21.8025 12.9704 21.8757 13.0512 21.9301C13.132 21.9844 13.2249 22.0183 13.3217 22.0287C13.4185 22.0391 13.5165 22.0258 13.607 21.9899L23.62 18.0999C23.7323 18.0582 23.829 17.983 23.8969 17.8844C23.9649 17.7858 24.0009 17.6687 24 17.5489V8.65295C23.9989 8.49451 23.9353 8.34292 23.8229 8.23126C23.7104 8.11961 23.5584 8.05694 23.4 8.05695V8.05594ZM0.676 8.09495C0.587213 8.09179 0.498735 8.10705 0.416129 8.13974C0.333523 8.17244 0.258575 8.22188 0.196 8.28495C0.086 8.39595 0 8.52994 0 8.68994V17.0449C0 17.4869 0.515 17.7819 0.908 17.5849L7.178 14.5789L7.485 14.4319L10.454 12.9959C10.92 12.7759 10.884 12.0879 10.393 11.9039L0.883 8.13794C0.817351 8.11049 0.747142 8.09556 0.676 8.09395V8.09495Z" fill="#413EDC"/>
</g>
<defs>
<clipPath id="clip0">
<rect width="24" height="24" fill="#413EDC"/>
</clipPath>
</defs>
</svg>
