<svg width="24" height="24" viewBox="0 0 24 24" ffill="#413EDC" xmlns="http://www.w3.org/2000/svg">
<g clip-path="url(#clip0)">
<path d="M0 15.415C0 15.883 0.38 16.265 0.848 16.265H6.785V0.574991L0 7.71999V15.415ZM15.416 23.997C15.883 23.997 16.262 23.617 16.262 23.148V17.211H0.573L7.719 23.996H15.416V23.997ZM24 8.58699C24.0003 8.47573 23.9785 8.36552 23.936 8.2627C23.8936 8.15987 23.8312 8.06646 23.7524 7.98783C23.6737 7.90921 23.5802 7.84693 23.4774 7.80456C23.3745 7.7622 23.2643 7.7406 23.153 7.74099H17.215V23.43L23.997 16.282L24 8.58599V8.58699ZM8.585 0.00299072C8.36036 0.00299072 8.14492 0.092228 7.98608 0.251071C7.82724 0.409915 7.738 0.625352 7.738 0.849991V6.78999H23.426L16.282 0.00299072H8.585Z" fill="#413EDC"/>
</g>
<defs>
<clipPath id="clip0">
<rect width="24" height="24" fill="#413EDC"/>
</clipPath>
</defs>
</svg>
