<?xml version="1.0" encoding="utf-8"?>
<!-- Generator: Adobe Illustrator 23.0.1, SVG Export Plug-In . SVG Version: 6.00 Build 0)  -->
<svg version="1.1" id="Layer_1" xmlns="http://www.w3.org/2000/svg" xmlns:xlink="http://www.w3.org/1999/xlink" x="0px" y="0px"
	 viewBox="0 0 1000 1000" style="enable-background:new 0 0 1000 1000;" xml:space="preserve" >
<style type="text/css">
	.st0{fill:#413EDC;}
	.st1{fill:#413EDC;}
</style>
<g>
	<path class="st0" d="M567.7,268.5l-136.3,3.4c0-51.1-30.7-98.8-78.4-119.3s-102.2-10.2-139.7,27.3s-47.7,92-27.3,139.7
		s68.1,78.4,119.3,78.4h98.8v136.3h-98.6c-112.4,0-211.2-68.1-248.7-173.7s-10.4-221.4,74.8-293c51.1-44.3,119.2-68.1,184-64.7
		c40.9,0,81.8,13.6,119.3,34.1C431.5,40.2,561,105,567.7,268.5L567.7,268.5z"/>
	<path class="st1" d="M697.2,997.5c-146.5,0-265.9-119.3-265.9-265.9V299.2h136.3v432.5c0,51.1,30.7,98.8,78.4,119.3
		c47.7,20.5,102.2,10.2,139.7-27.3c37.5-37.5,47.7-92,27.3-139.7c-20.4-47.7-68.1-78.4-119.3-78.4h-98.8V469.4h98.8
		c146.5,0,265.9,119.3,265.9,265.9C962.9,878.3,843.7,997.5,697.2,997.5z"/>
</g>
</svg>
